<svg width="16" height="18" viewBox="0 0 16 18" fill="none" xmlns="http://www.w3.org/2000/svg">
<path d="M0.5 7.36091V17C0.5 17.5523 0.947715 18 1.5 18H5.125C5.67728 18 6.125 17.5523 6.125 17V12.5C6.125 11.9477 6.57272 11.5 7.125 11.5H8.875C9.42728 11.5 9.875 11.9477 9.875 12.5V17C9.875 17.5523 10.3227 18 10.875 18H14.5C15.0523 18 15.5 17.5523 15.5 17V7.36091C15.5 7.08181 15.3834 6.81541 15.1783 6.62611L8.67828 0.626105C8.29522 0.272509 7.70478 0.272509 7.32172 0.626104L0.82172 6.6261C0.616638 6.81541 0.5 7.08181 0.5 7.36091Z" fill="#3060D0"/>
</svg>
