<svg width="20" height="20" viewBox="0 0 20 20" fill="none" xmlns="http://www.w3.org/2000/svg">
<mask id="path-1-inside-1_630_157" fill="white">
<path fill-rule="evenodd" clip-rule="evenodd" d="M11.3 1C11.9627 1 12.5 1.53726 12.5 2.2V3.50867C13.2403 3.79183 13.9203 4.19707 14.5152 4.69976L15.755 3.98398C16.3289 3.65261 17.0628 3.84926 17.3942 4.42321L18.6942 6.67488C19.0256 7.24883 18.8289 7.98274 18.255 8.31411L16.9331 9.07731C16.9772 9.3949 17 9.71931 17 10.049C17 10.4709 16.9627 10.884 16.8912 11.2853L17.755 11.784C18.3289 12.1153 18.5256 12.8493 18.1942 13.4232L16.8942 15.6749C16.5628 16.2488 15.8289 16.4455 15.255 16.1141L14.3075 15.5671C13.7638 15.9922 13.1555 16.3387 12.5 16.5894V17.8C12.5 18.4627 11.9627 19 11.3 19H8.69997C8.03722 19 7.49997 18.4627 7.49997 17.8V16.5894C6.8444 16.3387 6.23617 15.9922 5.69239 15.5671L4.74498 16.1141C4.17103 16.4455 3.43712 16.2488 3.10575 15.6749L1.80575 13.4232C1.47438 12.8493 1.67103 12.1154 2.24498 11.784L3.10878 11.2853C3.03728 10.884 2.99997 10.4709 2.99997 10.049C2.99997 9.71931 3.02277 9.3949 3.06687 9.0773L1.74498 8.31411C1.17103 7.98273 0.974374 7.24883 1.30575 6.67487L2.60574 4.42321C2.93712 3.84926 3.67102 3.65261 4.24498 3.98398L5.48474 4.69976C6.07969 4.19706 6.75964 3.79182 7.49997 3.50867V2.2C7.49997 1.53726 8.03722 1 8.69997 1H11.3ZM9.99997 12C11.1045 12 12 11.1046 12 10C12 8.89543 11.1045 8 9.99997 8C8.8954 8 7.99997 8.89543 7.99997 10C7.99997 11.1046 8.8954 12 9.99997 12Z"/>
</mask>
<path fill-rule="evenodd" clip-rule="evenodd" d="M11.3 1C11.9627 1 12.5 1.53726 12.5 2.2V3.50867C13.2403 3.79183 13.9203 4.19707 14.5152 4.69976L15.755 3.98398C16.3289 3.65261 17.0628 3.84926 17.3942 4.42321L18.6942 6.67488C19.0256 7.24883 18.8289 7.98274 18.255 8.31411L16.9331 9.07731C16.9772 9.3949 17 9.71931 17 10.049C17 10.4709 16.9627 10.884 16.8912 11.2853L17.755 11.784C18.3289 12.1153 18.5256 12.8493 18.1942 13.4232L16.8942 15.6749C16.5628 16.2488 15.8289 16.4455 15.255 16.1141L14.3075 15.5671C13.7638 15.9922 13.1555 16.3387 12.5 16.5894V17.8C12.5 18.4627 11.9627 19 11.3 19H8.69997C8.03722 19 7.49997 18.4627 7.49997 17.8V16.5894C6.8444 16.3387 6.23617 15.9922 5.69239 15.5671L4.74498 16.1141C4.17103 16.4455 3.43712 16.2488 3.10575 15.6749L1.80575 13.4232C1.47438 12.8493 1.67103 12.1154 2.24498 11.784L3.10878 11.2853C3.03728 10.884 2.99997 10.4709 2.99997 10.049C2.99997 9.71931 3.02277 9.3949 3.06687 9.0773L1.74498 8.31411C1.17103 7.98273 0.974374 7.24883 1.30575 6.67487L2.60574 4.42321C2.93712 3.84926 3.67102 3.65261 4.24498 3.98398L5.48474 4.69976C6.07969 4.19706 6.75964 3.79182 7.49997 3.50867V2.2C7.49997 1.53726 8.03722 1 8.69997 1H11.3ZM9.99997 12C11.1045 12 12 11.1046 12 10C12 8.89543 11.1045 8 9.99997 8C8.8954 8 7.99997 8.89543 7.99997 10C7.99997 11.1046 8.8954 12 9.99997 12Z" fill="#3060D0"/>
<path d="M12.5 3.50867H11.5V4.19685L12.1427 4.44269L12.5 3.50867ZM14.5152 4.69976L13.8698 5.46361L14.4066 5.91717L15.0152 5.56579L14.5152 4.69976ZM15.755 3.98398L15.255 3.11795V3.11795L15.755 3.98398ZM17.3942 4.42321L16.5282 4.92321L16.5282 4.92321L17.3942 4.42321ZM18.6942 6.67488L17.8282 7.17488L18.6942 6.67488ZM18.255 8.31411L18.755 9.18013V9.18013L18.255 8.31411ZM16.9331 9.07731L16.4331 8.21129L15.8499 8.54795L15.9426 9.21487L16.9331 9.07731ZM16.8912 11.2853L15.9067 11.1098L15.7836 11.8005L16.3912 12.1513L16.8912 11.2853ZM17.755 11.784L17.255 12.65L17.755 11.784ZM18.1942 13.4232L17.3282 12.9232L17.3282 12.9232L18.1942 13.4232ZM16.8942 15.6749L17.7602 16.1749L16.8942 15.6749ZM15.255 16.1141L14.755 16.9801L15.255 16.1141ZM14.3075 15.5671L14.8075 14.7011L14.2232 14.3637L13.6917 14.7793L14.3075 15.5671ZM12.5 16.5894L12.1427 15.6554L11.5 15.9012V16.5894H12.5ZM7.49997 16.5894H8.49997V15.9012L7.8572 15.6554L7.49997 16.5894ZM5.69239 15.5671L6.30827 14.7793L5.77671 14.3637L5.19239 14.7011L5.69239 15.5671ZM4.74498 16.1141L4.24498 15.2481H4.24498L4.74498 16.1141ZM3.10575 15.6749L2.23972 16.1749H2.23972L3.10575 15.6749ZM1.80575 13.4232L2.67177 12.9232H2.67177L1.80575 13.4232ZM2.24498 11.784L1.74498 10.918H1.74498L2.24498 11.784ZM3.10878 11.2853L3.60878 12.1513L4.21635 11.8005L4.09327 11.1098L3.10878 11.2853ZM3.06687 9.0773L4.05737 9.21486L4.14999 8.54794L3.56687 8.21128L3.06687 9.0773ZM1.74498 8.31411L1.24498 9.18013H1.24498L1.74498 8.31411ZM1.30575 6.67487L2.17177 7.17488L2.17177 7.17487L1.30575 6.67487ZM2.60574 4.42321L3.47177 4.92321H3.47177L2.60574 4.42321ZM4.24498 3.98398L3.74498 4.85L3.74498 4.85L4.24498 3.98398ZM5.48474 4.69976L4.98474 5.56578L5.59334 5.91716L6.13014 5.4636L5.48474 4.69976ZM7.49997 3.50867L7.8572 4.44269L8.49997 4.19685V3.50867H7.49997ZM13.5 2.2C13.5 0.984974 12.515 0 11.3 0V2C11.4104 2 11.5 2.08954 11.5 2.2H13.5ZM13.5 3.50867V2.2H11.5V3.50867H13.5ZM15.1606 3.93592C14.4812 3.36186 13.7041 2.89857 12.8572 2.57466L12.1427 4.44269C12.7765 4.68508 13.3593 5.03227 13.8698 5.46361L15.1606 3.93592ZM15.255 3.11795L14.0152 3.83374L15.0152 5.56579L16.255 4.85001L15.255 3.11795ZM18.2602 3.92321C17.6527 2.87097 16.3072 2.51044 15.255 3.11795L16.255 4.85001C16.3506 4.79478 16.4729 4.82755 16.5282 4.92321L18.2602 3.92321ZM19.5602 6.17488L18.2602 3.92321L16.5282 4.92321L17.8282 7.17488L19.5602 6.17488ZM18.755 9.18013C19.8072 8.57262 20.1677 7.22712 19.5602 6.17488L17.8282 7.17488C17.8834 7.27053 17.8506 7.39285 17.755 7.44808L18.755 9.18013ZM17.4331 9.94334L18.755 9.18013L17.755 7.44808L16.4331 8.21129L17.4331 9.94334ZM18 10.049C18 9.67316 17.974 9.30279 17.9236 8.93976L15.9426 9.21487C15.9804 9.48701 16 9.76546 16 10.049H18ZM17.8756 11.4607C17.9574 11.0018 18 10.5299 18 10.049H16C16 10.4118 15.9679 10.7662 15.9067 11.1098L17.8756 11.4607ZM18.255 10.918L17.3912 10.4192L16.3912 12.1513L17.255 12.65L18.255 10.918ZM19.0602 13.9232C19.6677 12.871 19.3072 11.5255 18.255 10.918L17.255 12.65C17.3506 12.7052 17.3834 12.8276 17.3282 12.9232L19.0602 13.9232ZM17.7602 16.1749L19.0602 13.9232L17.3282 12.9232L16.0282 15.1749L17.7602 16.1749ZM14.755 16.9801C15.8072 17.5876 17.1527 17.2271 17.7602 16.1749L16.0282 15.1749C15.9729 15.2705 15.8506 15.3033 15.755 15.2481L14.755 16.9801ZM13.8075 16.4331L14.755 16.9801L15.755 15.2481L14.8075 14.7011L13.8075 16.4331ZM12.8572 17.5234C13.6071 17.2366 14.3023 16.8405 14.9234 16.3549L13.6917 14.7793C13.2252 15.1439 12.7039 15.4408 12.1427 15.6554L12.8572 17.5234ZM13.5 17.8V16.5894H11.5V17.8H13.5ZM11.3 20C12.515 20 13.5 19.015 13.5 17.8H11.5C11.5 17.9105 11.4104 18 11.3 18V20ZM8.69997 20H11.3V18H8.69997V20ZM6.49997 17.8C6.49997 19.015 7.48494 20 8.69997 20V18C8.58951 18 8.49997 17.9105 8.49997 17.8H6.49997ZM6.49997 16.5894V17.8H8.49997V16.5894H6.49997ZM5.07651 16.355C5.69759 16.8405 6.39279 17.2366 7.14273 17.5234L7.8572 15.6554C7.29601 15.4408 6.77476 15.1439 6.30827 14.7793L5.07651 16.355ZM5.24498 16.9801L6.19239 16.4331L5.19239 14.7011L4.24498 15.2481L5.24498 16.9801ZM2.23972 16.1749C2.84723 17.2271 4.19273 17.5876 5.24498 16.9801L4.24498 15.2481C4.14932 15.3033 4.027 15.2705 3.97177 15.1749L2.23972 16.1749ZM0.939722 13.9232L2.23972 16.1749L3.97177 15.1749L2.67177 12.9232L0.939722 13.9232ZM1.74498 10.918C0.692734 11.5255 0.332208 12.871 0.939722 13.9232L2.67177 12.9232C2.61654 12.8276 2.64932 12.7052 2.74498 12.65L1.74498 10.918ZM2.60878 10.4192L1.74498 10.918L2.74498 12.65L3.60878 12.1513L2.60878 10.4192ZM1.99997 10.049C1.99997 10.53 2.04251 11.0018 2.12429 11.4607L4.09327 11.1098C4.03204 10.7662 3.99997 10.4118 3.99997 10.049H1.99997ZM2.07638 8.93974C2.02596 9.30278 1.99997 9.67316 1.99997 10.049H3.99997C3.99997 9.76546 4.01957 9.48701 4.05737 9.21486L2.07638 8.93974ZM1.24498 9.18013L2.56687 9.94333L3.56687 8.21128L2.24498 7.44808L1.24498 9.18013ZM0.43972 6.17487C-0.167794 7.22712 0.192734 8.57262 1.24498 9.18013L2.24498 7.44808C2.14932 7.39285 2.11654 7.27053 2.17177 7.17488L0.43972 6.17487ZM1.73972 3.92321L0.43972 6.17487L2.17177 7.17487L3.47177 4.92321L1.73972 3.92321ZM4.74498 3.11795C3.69273 2.51044 2.34723 2.87096 1.73972 3.92321L3.47177 4.92321C3.527 4.82755 3.64932 4.79478 3.74498 4.85L4.74498 3.11795ZM5.98474 3.83373L4.74498 3.11795L3.74498 4.85L4.98474 5.56578L5.98474 3.83373ZM7.14273 2.57466C6.29583 2.89857 5.51875 3.36185 4.83934 3.93591L6.13014 5.4636C6.64063 5.03227 7.22345 4.68508 7.8572 4.44269L7.14273 2.57466ZM6.49997 2.2V3.50867H8.49997V2.2H6.49997ZM8.69997 0C7.48494 0 6.49997 0.984976 6.49997 2.2H8.49997C8.49997 2.08954 8.58951 2 8.69997 2V0ZM11.3 0H8.69997V2H11.3V0ZM11 10C11 10.5523 10.5523 11 9.99997 11V13C11.6568 13 13 11.6569 13 10H11ZM9.99997 9C10.5523 9 11 9.44772 11 10H13C13 8.34315 11.6568 7 9.99997 7V9ZM8.99997 10C8.99997 9.44772 9.44768 9 9.99997 9V7C8.34311 7 6.99997 8.34315 6.99997 10H8.99997ZM9.99997 11C9.44768 11 8.99997 10.5523 8.99997 10H6.99997C6.99997 11.6569 8.34311 13 9.99997 13V11Z" fill="#3060D0" mask="url(#path-1-inside-1_630_157)"/>
</svg>
