<svg width="20" height="20" viewBox="0 0 20 20" fill="none" xmlns="http://www.w3.org/2000/svg">
<mask id="path-1-inside-1_630_125" fill="white">
<path fill-rule="evenodd" clip-rule="evenodd" d="M11.3 1C11.9627 1 12.5 1.53726 12.5 2.2V3.50867C13.2403 3.79183 13.9203 4.19707 14.5152 4.69976L15.755 3.98398C16.329 3.65261 17.0629 3.84926 17.3942 4.42321L18.6942 6.67488C19.0256 7.24883 18.829 7.98274 18.255 8.31411L16.9331 9.07731C16.9772 9.3949 17 9.71931 17 10.049C17 10.4709 16.9627 10.884 16.8912 11.2853L17.755 11.784C18.329 12.1153 18.5256 12.8493 18.1942 13.4232L16.8942 15.6749C16.5629 16.2488 15.829 16.4455 15.255 16.1141L14.3076 15.5671C13.7638 15.9922 13.1556 16.3387 12.5 16.5894V17.8C12.5 18.4627 11.9627 19 11.3 19H8.7C8.03725 19 7.5 18.4627 7.5 17.8V16.5894C6.84443 16.3387 6.2362 15.9922 5.69242 15.5671L4.74501 16.1141C4.17106 16.4455 3.43715 16.2488 3.10578 15.6749L1.80578 13.4232C1.47441 12.8493 1.67106 12.1154 2.24501 11.784L3.10881 11.2853C3.03731 10.884 3 10.4709 3 10.049C3 9.71931 3.0228 9.3949 3.0669 9.0773L1.74501 8.31411C1.17106 7.98273 0.974405 7.24883 1.30578 6.67487L2.60578 4.42321C2.93715 3.84926 3.67105 3.65261 4.24501 3.98398L5.48477 4.69976C6.07972 4.19706 6.75967 3.79182 7.5 3.50867V2.2C7.5 1.53726 8.03726 1 8.7 1H11.3ZM10 12C11.1046 12 12 11.1046 12 10C12 8.89543 11.1046 8 10 8C8.89543 8 8 8.89543 8 10C8 11.1046 8.89543 12 10 12Z"/>
</mask>
<path d="M12.5 3.50867H11.5V4.19685L12.1428 4.44269L12.5 3.50867ZM14.5152 4.69976L13.8698 5.46361L14.4066 5.91717L15.0152 5.56579L14.5152 4.69976ZM15.755 3.98398L15.255 3.11795V3.11795L15.755 3.98398ZM17.3942 4.42321L16.5282 4.92321L16.5282 4.92321L17.3942 4.42321ZM18.6942 6.67488L17.8282 7.17488L18.6942 6.67488ZM18.255 8.31411L18.755 9.18013V9.18013L18.255 8.31411ZM16.9331 9.07731L16.4331 8.21129L15.85 8.54795L15.9426 9.21487L16.9331 9.07731ZM16.8912 11.2853L15.9067 11.1098L15.7836 11.8005L16.3912 12.1513L16.8912 11.2853ZM17.755 11.784L17.255 12.65L17.755 11.784ZM18.1942 13.4232L17.3282 12.9232L17.3282 12.9232L18.1942 13.4232ZM16.8942 15.6749L17.7603 16.1749L16.8942 15.6749ZM15.255 16.1141L14.755 16.9801L15.255 16.1141ZM14.3076 15.5671L14.8076 14.7011L14.2233 14.3637L13.6917 14.7793L14.3076 15.5671ZM12.5 16.5894L12.1428 15.6554L11.5 15.9012V16.5894H12.5ZM7.5 16.5894H8.5V15.9012L7.85723 15.6554L7.5 16.5894ZM5.69242 15.5671L6.3083 14.7793L5.77674 14.3637L5.19242 14.7011L5.69242 15.5671ZM4.74501 16.1141L4.24501 15.2481H4.24501L4.74501 16.1141ZM3.10578 15.6749L2.23975 16.1749H2.23975L3.10578 15.6749ZM1.80578 13.4232L2.6718 12.9232H2.6718L1.80578 13.4232ZM2.24501 11.784L1.74501 10.918H1.74501L2.24501 11.784ZM3.10881 11.2853L3.60881 12.1513L4.21638 11.8005L4.09331 11.1098L3.10881 11.2853ZM3.0669 9.0773L4.0574 9.21486L4.15002 8.54794L3.5669 8.21128L3.0669 9.0773ZM1.74501 8.31411L1.24501 9.18013H1.24501L1.74501 8.31411ZM1.30578 6.67487L2.1718 7.17488L2.1718 7.17487L1.30578 6.67487ZM2.60578 4.42321L3.4718 4.92321H3.4718L2.60578 4.42321ZM4.24501 3.98398L3.74501 4.85L3.74501 4.85L4.24501 3.98398ZM5.48477 4.69976L4.98477 5.56578L5.59338 5.91716L6.13017 5.4636L5.48477 4.69976ZM7.5 3.50867L7.85723 4.44269L8.5 4.19685V3.50867H7.5ZM13.5 2.2C13.5 0.984974 12.515 0 11.3 0V2C11.4105 2 11.5 2.08954 11.5 2.2H13.5ZM13.5 3.50867V2.2H11.5V3.50867H13.5ZM15.1606 3.93592C14.4812 3.36186 13.7041 2.89857 12.8572 2.57466L12.1428 4.44269C12.7765 4.68508 13.3593 5.03227 13.8698 5.46361L15.1606 3.93592ZM15.255 3.11795L14.0152 3.83374L15.0152 5.56579L16.255 4.85001L15.255 3.11795ZM18.2603 3.92321C17.6527 2.87097 16.3072 2.51044 15.255 3.11795L16.255 4.85001C16.3507 4.79478 16.473 4.82755 16.5282 4.92321L18.2603 3.92321ZM19.5603 6.17488L18.2603 3.92321L16.5282 4.92321L17.8282 7.17488L19.5603 6.17488ZM18.755 9.18013C19.8072 8.57262 20.1678 7.22712 19.5603 6.17488L17.8282 7.17488C17.8834 7.27053 17.8507 7.39285 17.755 7.44808L18.755 9.18013ZM17.4331 9.94334L18.755 9.18013L17.755 7.44808L16.4331 8.21129L17.4331 9.94334ZM18 10.049C18 9.67316 17.974 9.30279 17.9236 8.93976L15.9426 9.21487C15.9804 9.48701 16 9.76546 16 10.049H18ZM17.8757 11.4607C17.9574 11.0018 18 10.5299 18 10.049H16C16 10.4118 15.9679 10.7662 15.9067 11.1098L17.8757 11.4607ZM18.255 10.918L17.3912 10.4192L16.3912 12.1513L17.255 12.65L18.255 10.918ZM19.0603 13.9232C19.6678 12.871 19.3072 11.5255 18.255 10.918L17.255 12.65C17.3507 12.7052 17.3834 12.8276 17.3282 12.9232L19.0603 13.9232ZM17.7603 16.1749L19.0603 13.9232L17.3282 12.9232L16.0282 15.1749L17.7603 16.1749ZM14.755 16.9801C15.8072 17.5876 17.1527 17.2271 17.7603 16.1749L16.0282 15.1749C15.973 15.2705 15.8507 15.3033 15.755 15.2481L14.755 16.9801ZM13.8076 16.4331L14.755 16.9801L15.755 15.2481L14.8076 14.7011L13.8076 16.4331ZM12.8572 17.5234C13.6072 17.2366 14.3024 16.8405 14.9235 16.3549L13.6917 14.7793C13.2252 15.1439 12.704 15.4408 12.1428 15.6554L12.8572 17.5234ZM13.5 17.8V16.5894H11.5V17.8H13.5ZM11.3 20C12.515 20 13.5 19.015 13.5 17.8H11.5C11.5 17.9105 11.4105 18 11.3 18V20ZM8.7 20H11.3V18H8.7V20ZM6.5 17.8C6.5 19.015 7.48497 20 8.7 20V18C8.58954 18 8.5 17.9105 8.5 17.8H6.5ZM6.5 16.5894V17.8H8.5V16.5894H6.5ZM5.07654 16.355C5.69762 16.8405 6.39282 17.2366 7.14276 17.5234L7.85723 15.6554C7.29604 15.4408 6.77479 15.1439 6.3083 14.7793L5.07654 16.355ZM5.24501 16.9801L6.19242 16.4331L5.19242 14.7011L4.24501 15.2481L5.24501 16.9801ZM2.23975 16.1749C2.84727 17.2271 4.19277 17.5876 5.24501 16.9801L4.24501 15.2481C4.14935 15.3033 4.02703 15.2705 3.9718 15.1749L2.23975 16.1749ZM0.939752 13.9232L2.23975 16.1749L3.9718 15.1749L2.6718 12.9232L0.939752 13.9232ZM1.74501 10.918C0.692765 11.5255 0.332239 12.871 0.939752 13.9232L2.6718 12.9232C2.61657 12.8276 2.64935 12.7052 2.74501 12.65L1.74501 10.918ZM2.60881 10.4192L1.74501 10.918L2.74501 12.65L3.60881 12.1513L2.60881 10.4192ZM2 10.049C2 10.53 2.04254 11.0018 2.12432 11.4607L4.09331 11.1098C4.03207 10.7662 4 10.4118 4 10.049H2ZM2.07641 8.93974C2.02599 9.30278 2 9.67316 2 10.049H4C4 9.76546 4.0196 9.48701 4.0574 9.21486L2.07641 8.93974ZM1.24501 9.18013L2.5669 9.94333L3.5669 8.21128L2.24501 7.44808L1.24501 9.18013ZM0.43975 6.17487C-0.167764 7.22712 0.192764 8.57262 1.24501 9.18013L2.24501 7.44808C2.14935 7.39285 2.11657 7.27053 2.1718 7.17488L0.43975 6.17487ZM1.73975 3.92321L0.43975 6.17487L2.1718 7.17487L3.4718 4.92321L1.73975 3.92321ZM4.74501 3.11795C3.69276 2.51044 2.34726 2.87096 1.73975 3.92321L3.4718 4.92321C3.52703 4.82755 3.64935 4.79478 3.74501 4.85L4.74501 3.11795ZM5.98477 3.83373L4.74501 3.11795L3.74501 4.85L4.98477 5.56578L5.98477 3.83373ZM7.14276 2.57466C6.29586 2.89857 5.51878 3.36185 4.83937 3.93591L6.13017 5.4636C6.64066 5.03227 7.22348 4.68508 7.85723 4.44269L7.14276 2.57466ZM6.5 2.2V3.50867H8.5V2.2H6.5ZM8.7 0C7.48497 0 6.5 0.984976 6.5 2.2H8.5C8.5 2.08954 8.58954 2 8.7 2V0ZM11.3 0H8.7V2H11.3V0ZM11 10C11 10.5523 10.5523 11 10 11V13C11.6569 13 13 11.6569 13 10H11ZM10 9C10.5523 9 11 9.44772 11 10H13C13 8.34315 11.6569 7 10 7V9ZM9 10C9 9.44772 9.44771 9 10 9V7C8.34314 7 7 8.34315 7 10H9ZM10 11C9.44771 11 9 10.5523 9 10H7C7 11.6569 8.34314 13 10 13V11Z" fill="#949494" mask="url(#path-1-inside-1_630_125)"/>
</svg>
